<!-- Save this as spotify.svg -->
<svg xmlns="http://www.w3.org/2000/svg" width="32" height="32" viewBox="0 0 24 24" fill="#1DB954">
  <path d="M12 .297c-6.63 0-12 5.373-12 12 0 6.627 
           5.373 12 12 12s12-5.373 12-12c0-6.627-5.373-12-12-12zm5.225 
           17.158c-.228.373-.707.494-1.078.267-2.947-1.803-6.651-2.21-11.001-1.217-.417.095-.84-.168-.934-.592-.095-.424.168-.84.592-.935 
           4.783-1.071 8.918-.602 12.292 1.317.372.23.494.707.129 1.16zm1.499-2.556c-.29.476-.908.631-1.384.34-3.376-2.052-8.525-2.652-12.488-1.463-.54.165-1.113-.137-1.278-.682-.165-.54.137-1.113.681-1.278 
           4.528-1.39 10.157-.722 14.041 1.716.476.29.631.908.338 1.367zm.149-2.693c-4.016-2.388-10.666-2.604-14.512-1.436-.657.2-1.36-.168-1.56-.83-.2-.66.168-1.36.83-1.56 
           4.444-1.34 11.785-1.09 16.34 1.682.597.355.79 1.127.436 1.725-.356.597-1.129.789-1.734.418z"/>
</svg>
